<?xml version="1.0" standalone="no"?>
<!DOCTYPE svg PUBLIC "-//W3C//DTD SVG 20010904//EN"
 "http://www.w3.org/TR/2001/REC-SVG-20010904/DTD/svg10.dtd">
<svg version="1.0" xmlns="http://www.w3.org/2000/svg"
 width="310.000000pt" height="310.000000pt" viewBox="0 0 310.000000 310.000000"
 preserveAspectRatio="xMidYMid meet">
<metadata>
Created by potrace 1.11, written by Peter Selinger 2001-2013
</metadata>
<g transform="translate(0.000000,310.000000) scale(0.100000,-0.100000)"
fill="#000000" stroke="none">
<path d="M745 2715 c-223 -46 -388 -209 -452 -445 -25 -91 -25 -339 0 -430 60
-221 202 -373 412 -436 46 -15 92 -19 200 -18 123 0 149 4 220 27 44 14 105
41 135 59 l55 33 3 93 3 93 -54 -44 c-210 -171 -542 -167 -694 8 -120 138
-157 410 -88 642 36 120 146 234 260 269 175 53 380 13 522 -103 l54 -44 -3
98 -3 98 -75 37 c-41 21 -102 45 -135 54 -84 22 -273 27 -360 9z"/>
<path d="M2080 2075 l0 -55 45 0 45 0 0 55 0 55 -45 0 -45 0 0 -55z"/>
<path d="M1593 1926 c-95 -45 -142 -147 -130 -286 10 -113 49 -178 131 -216
65 -30 144 -31 206 -3 59 27 77 44 108 104 23 43 26 63 27 145 0 59 -5 108
-14 130 -53 132 -197 187 -328 126z m177 -68 c53 -37 75 -90 75 -183 0 -95
-21 -147 -74 -182 -68 -46 -156 -18 -196 62 -15 30 -20 60 -20 120 0 60 5 90
20 120 40 80 128 108 195 63z"/>
<path d="M2520 1934 c-19 -8 -47 -27 -62 -41 l-28 -27 0 32 c0 31 -1 32 -45
32 l-45 0 0 -260 0 -260 45 0 45 0 0 173 c0 190 12 238 64 272 41 27 105 30
143 6 45 -28 53 -68 53 -273 l0 -178 45 0 45 0 0 188 c0 203 -7 245 -47 293
-49 57 -138 75 -213 43z"/>
<path d="M2080 1670 l0 -260 45 0 45 0 0 260 0 260 -45 0 -45 0 0 -260z"/>
<path d="M1960 570 l0 -230 24 0 c24 0 24 1 28 120 3 137 14 157 86 167 34 5
44 1 66 -20 25 -25 26 -30 26 -147 l0 -120 25 0 25 0 0 120 c0 82 -5 132 -14
155 -27 65 -114 85 -180 40 l-36 -24 0 84 c0 84 0 85 -25 85 l-25 0 0 -230z"/>
<path d="M414 763 c3 -10 24 -92 46 -183 67 -268 55 -240 99 -240 l38 0 43
180 c24 99 47 180 50 180 3 0 26 -81 50 -180 l43 -180 38 0 c44 0 32 -28 99
240 22 91 43 173 46 183 5 15 1 18 -22 15 -28 -3 -29 -6 -75 -188 -25 -102
-49 -178 -52 -170 -3 8 -24 93 -47 188 l-42 172 -38 0 -38 0 -42 -172 c-23
-95 -44 -180 -47 -188 -3 -8 -27 68 -52 170 -46 182 -47 185 -75 188 -23 3
-27 0 -22 -15z"/>
<path d="M1380 715 c0 -38 -3 -45 -20 -45 -15 0 -20 -7 -20 -25 0 -18 5 -25
19 -25 18 0 20 -10 23 -120 4 -144 9 -152 98 -158 59 -4 60 -4 60 22 0 24 -3
26 -43 26 -24 0 -48 5 -55 12 -8 8 -12 48 -12 115 l0 103 55 0 c52 0 55 1 55
25 0 24 -3 25 -55 25 l-55 0 0 45 c0 41 -2 45 -25 45 -23 0 -25 -4 -25 -45z"/>
<path d="M1040 666 c-26 -9 -36 -19 -38 -38 l-3 -26 43 15 c57 20 126 12 150
-17 33 -41 24 -50 -49 -50 -110 0 -163 -39 -163 -118 0 -25 9 -43 34 -68 29
-29 41 -34 79 -34 31 0 55 8 81 25 34 23 36 23 36 5 0 -15 7 -20 25 -20 l25 0
0 118 c0 91 -4 125 -18 152 -31 62 -118 86 -202 56z m170 -186 c0 -55 -49
-100 -110 -100 -49 0 -85 50 -62 87 13 20 54 32 115 32 50 1 57 -1 57 -19z"/>
<path d="M1685 666 c-42 -18 -83 -69 -91 -112 -21 -115 37 -210 138 -221 61
-7 118 17 118 50 l0 25 -44 -16 c-90 -33 -166 20 -166 113 0 93 76 146 166
113 l44 -16 0 25 c0 45 -99 68 -165 39z"/>
<path d="M2415 666 c-46 -20 -83 -69 -91 -122 -18 -123 40 -204 153 -212 79
-5 137 16 141 51 l3 25 -47 -14 c-61 -18 -108 -18 -144 1 -28 14 -60 60 -60
85 0 6 46 10 130 10 l130 0 0 38 c0 112 -111 183 -215 138z m136 -65 c53 -53
43 -61 -75 -61 l-105 0 10 29 c12 34 59 60 107 61 24 0 42 -8 63 -29z"/>
<path d="M2816 655 c-34 -23 -36 -23 -36 -5 0 15 -7 20 -25 20 l-25 0 0 -165
0 -165 25 0 25 0 0 100 c0 63 5 113 14 134 16 38 60 61 106 54 27 -4 30 -2 30
24 0 26 -3 28 -39 28 -24 0 -51 -9 -75 -25z"/>
</g>
</svg>
